<?xml version="1.0" encoding="UTF-8"?>
<svg id="Capa_1" data-name="Capa 1" xmlns="http://www.w3.org/2000/svg" viewBox="0 0 1920 1080">
  <defs>
    <style>
      .cls-1 {
        opacity: .08;
      }

      .cls-2 {
        fill: #183e6f;
        stroke-width: 0px;
      }
    </style>
  </defs>
  <g class="cls-1">
    <path class="cls-2" d="m1751.7,433.47c-54.44,22.81-151.71,75.73-192.19,173.96-.58.55-1.18,1.14-1.77,1.73-.53.53-1.18,1.18-1.8,1.75,27.31-79.71,96.35-148.98,180.28-180.83,17.44-6.93,53.76-18.79,75.45-25.1,51.46-14.98,93.25-31.94,93.67-32.11l-1.38-4.18c-.44.11-45.42,11.48-120.82,30.79-74.15,18.99-129.98,47.54-170.68,87.28-35.71,34.87-61.34,82.47-72.12,133.83-.25.84-.42,1.7-.58,2.55l-.22,1.12c-2.11,11.72-3.83,32.11-3.83,45.44,0,5.45,1.14,9.23,1.69,11.05l.16.56c.81,2.87,2.1,6.19,4.95,6.44.11,0,.21.01.32.01,3.48,0,5.59-5.17,6.49-8.16,0,0,.37-.92.99-2.55,1.41-3.71,3.06-7.09,4.91-10.04,46.56-74.78,112.14-99.55,219.31-82.82,1.68.25,3.29-.67,4.13-2.36,1-2.01.67-4.39-.79-5.8-12-11.49-28.48-17.76-43.26-22.53,13.1-3.32,26-6.34,38.55-9.28,48.48-11.35,94.27-22.07,132.39-45.92,62.18-38.9,104.24-119.89,102.28-196.94l-.05-1.78c-.09-2.89-2.16-5.43-4.83-5.9-2.14-.39-4.06.69-4.89,2.74-27.93,69.74-108.97,93.84-180.47,115.1-24.01,7.14-46.69,13.88-65.9,21.93Zm250.41-135.43c.11-.02.34.05.62.29.23.2.62.64.64,1.4l.05,1.76c1.92,75.57-39.28,154.96-100.21,193.08-37.5,23.46-82.94,34.1-131.06,45.37-14.95,3.5-30.41,7.12-46.12,11.22l-7.25,2.02,7.36,2.29c15.76,4.92,35.38,11.03,48.65,23.73.06.11.03.37-.03.57-108.92-16.92-175.71,8.51-223.28,84.92-1.99,3.2-3.77,6.83-5.29,10.8-.61,1.59-.96,2.49-1.02,2.67-.58,1.89-1.54,3.94-2.24,4.84-.27-.46-.66-1.31-1.1-2.88l-.19-.64c-.52-1.74-1.5-4.97-1.5-9.77,0-13.12,1.68-33.15,3.74-44.59l.23-1.16c.13-.7.26-1.4.52-2.28,10.49-49.97,36.34-98,70.93-131.77,40.13-39.19,95.32-67.38,168.69-86.17,33.58-8.6,61.12-15.62,81.38-20.78-15.45,5.43-34.53,11.76-55.18,17.77-21.78,6.34-58.29,18.26-75.81,25.22-85.2,32.33-155.3,102.75-182.96,183.79l-.09.37c-.26,1.65-.8,5.09,1.53,6.28,2.38,1.21,4.64-1.02,7.75-4.11.67-.67,1.35-1.34,2.01-1.95l.36-.33.19-.45c39.77-97.04,136.11-149.42,189.99-172,18.99-7.96,41.56-14.67,65.45-21.78,72.46-21.55,154.59-45.97,183.24-117.73Z"/>
    <path class="cls-2" d="m2004,431.7c-42.7,92.98-143.09,126.67-200.34,126.67h-6.08s4.33,3.86,4.33,3.86c.87.78,2.09,1.37,3.92,2.25,3.99,1.93,11.41,5.52,23.01,15.26,8.43,7.03,15.75,14.34,23.03,23.01.41.48.38.97.22,1.27-.14.27-.39.38-.77.33-11.77-1.38-43.14-4.6-80.15-4.6-155.13,0-187.36,76.8-192.24,92.2-1.94,6.19-1.03,13.92,2.37,20.15,4.55,8.32,13.58,14.36,21.48,14.36h99.63v106.23c-25.22,12.89-52.69,23.54-81.7,31.63-22.48,6.2-45.53,10.86-68.52,13.84-22.34,2.96-46.25,3.21-70.82,3.21-46.62,0-77.95-1.56-104.67-5.2v-.03c-47.19-12.23-89.48-32.58-125.71-60.5-70.86-54.57-110.46-132.95-121.05-239.64-1.21-12.13-1.83-24.71-1.83-37.38,0-13.4.7-26.72,2.1-39.88h0c3.95-37.17,13.4-73.32,28.09-107.44,20.91-48.68,47.98-88.35,80.46-117.91,32.94-29.96,70.38-45.16,116.45-58.77,29.26-8.67,65.8-17.91,129.5-17.91,93.87,0,184.67,27.16,262.8,78.65.54.54,3.95,2.67,3.95,2.67h0s68.82-75.44,68.82-75.44l102.27-112.82-1.58-1.48c-37.96-35.7-82.62-65.25-132.76-87.83-48-21.56-102.29-37.24-161.44-46.84l-11.61-1.86c-.7-.1-2.75-.34-2.75-.34l-55.68-6.89c-23.85-1.73-48.52-2.57-75.43-2.57-23.85,0-45.79.94-67.05,2.87-193.95,17.14-352.36,107.75-447.06,255.33V-58.07h-226.06c-23.44,0-28.72,20.24-28.72,27.33v726.16c-8.25,62.08-42.41,111.43-104.43,150.85-34.77,22.05-76.56,33.71-120.85,33.71s-86.08-11.66-120.81-33.71c-58.53-37.17-89.81-84.84-98.44-150.01v-1.32h-.01V-58.06H-37v227.33c0,15.17,12.22,27.52,27.25,27.52H13.39v126.63h-.01v396.9c0,80.65,21.71,157.69,62.8,222.77,43.57,69.03,105.02,120.24,182.65,152.23,32.32,13.34,67.69,23.46,105.13,30.08l.23.03c38.22,6.83,79.58,10.29,122.95,10.29s83.55-3.46,121.28-10.26h0s.12-.02.12-.02c.09-.02.18-.03.27-.04l12.36-2.24-.25-.04c30.14-5.9,68.73-15.22,100.89-28.74,80.74-33.86,144-88.48,188.02-162.34,15.8-26.48,28.5-55.09,37.86-85.07,65.02,119.01,169.54,206.56,302.65,253.31,11.07,3.82,20.98,7,30.27,9.71l.77.21c72.54,16.93,147.34,25.52,222.3,25.52,67.88,0,135.61-7,201.33-20.81h1.85v-.42c7.72-1.62,15.66-3.41,24.21-5.49,48.69-11.67,96.62-27.17,142.45-46.06,27.98-11.48,55.98-24.59,83.25-38.97l1.18-.62v-296.62h22.1c13.57,0,28.17-8.69,28.17-27.78v-276.42l-4.21,9.18ZM1786.4,4.44c48.99,22.07,92.7,50.84,129.96,85.54l-84.43,93.12-66.43,72.85-14.7,16.19c-.12-.08-.24-.13-.36-.2-.17-.1-.34-.21-.51-.3l-.07-.04c-78.68-51.9-170.36-79.34-265.15-79.34-64.29,0-101.2,9.34-130.75,18.1-46.66,13.79-84.61,29.22-118.17,59.74-32.95,29.99-60.39,70.17-81.54,119.43-7.91,18.39-14.32,37.36-19.19,56.76.06-.47.12-.93.18-1.4.27-1.99.55-3.96.83-5.93.13-.91.26-1.83.4-2.73.43-2.86.88-5.69,1.34-8.48.06-.26.1-.54.15-.82l.14-.94c.2-1.43.4-2.82.64-4.16l.08-.39c.02-.1.03-.2.06-.31l.07-.33c.16-1.14.37-2.29.58-3.44l.19-1.04c.44-2.49.9-4.99,1.36-7.52l.33-1.78c2.28-11.97,4.97-24.18,7.99-36.27.72-2.86,1.47-5.71,2.23-8.54,2.76-10.35,5.95-21.07,9.5-31.87.39-1.25.82-2.49,1.24-3.74l2.72-7.86c2.37-6.73,4.58-12.7,6.76-18.26,1.02-2.58,2.05-5.14,3.1-7.7,1.86-4.6,3.96-9.58,6.47-15.33,1.3-2.93,2.61-5.86,4.04-8.84.61-1.43,1.27-2.84,1.93-4.24l.52-1.1c.05-.1.09-.2.14-.31l.09-.18c1.47-3.06,2.95-6.12,4.45-9.11,1.95-3.93,3.93-7.83,5.98-11.65,1.74-3.3,3.49-6.52,5.26-9.73.78-1.41,1.53-2.76,2.31-4.15,1.5-2.67,3.02-5.33,4.63-8,1.32-2.27,2.69-4.57,4.08-6.81l.31-.52c1.27-2.09,2.52-4.16,3.91-6.29,1.34-2.2,2.77-4.44,4.25-6.64.11-.17.21-.32.32-.49l.29-.44c2.34-3.56,4.66-7.09,7.06-10.58,2.65-3.79,5.3-7.55,7.97-11.28,2.45-3.39,4.99-6.78,7.75-10.34.05-.07.11-.14.16-.21h0s0,0,0,0l.23-.37s.13-.19.27-.32l.29-.32c2.59-3.5,5.27-6.84,7.59-9.7.15-.18.3-.37.44-.55,1.08-1.3,2.14-2.59,3.21-3.9l1.42-1.73c.13-.15.24-.3.37-.45.05-.06.09-.11.14-.17,3.89-4.62,7.1-8.34,10.13-11.73,1.64-1.94,3.4-3.84,5.16-5.75l.54-.64c3.37-3.63,6.77-7.22,10.2-10.78l.05-.05,2.04-2.09c1.11-1.13,2.22-2.26,3.38-3.39,5.32-5.37,11-10.83,16.88-16.22l.52-.47c1.78-1.59,3.55-3.17,5.33-4.79,2.4-2.16,4.83-4.26,7.3-6.37.09-.07.18-.15.26-.22,7-6.01,14.49-12.1,22.36-18.19l.28-.18s.01-.01.02-.01l.03-.02c2.03-1.58,4.08-3.13,6.23-4.66,1.59-1.26,3.23-2.44,4.87-3.63l1.38-.98c2.14-1.54,4.27-3.04,6.39-4.53,2.67-1.85,5.97-4.12,9.45-6.45.55-.37,1.1-.73,1.66-1.09.66-.44,1.31-.87,1.98-1.31,1.64-1.1,3.29-2.16,4.93-3.21l1.65-1.06c2.24-1.47,4.49-2.84,6.74-4.22,2.58-1.58,5.15-3.15,7.81-4.67,1.69-1.04,3.39-2.05,5.12-3.02,9.22-5.4,18.86-10.65,28.67-15.58,4.81-2.41,9.65-4.75,14.49-7.04,1.78-.85,3.58-1.68,5.4-2.52l1.87-.87c2.48-1.09,4.96-2.21,7.42-3.32,2.46-1.07,4.91-2.12,7.46-3.16,6.87-2.93,14.29-5.88,22.7-9.02,2.24-.87,4.48-1.67,6.76-2.48l.91-.32c1.19-.41,2.39-.83,3.6-1.25,1.38-.48,2.76-.97,4.15-1.43,4.99-1.68,9.95-3.31,14.91-4.94l.8-.26c5.29-1.63,10.58-3.22,16.01-4.75,2.36-.68,4.8-1.33,7.21-1.99,6.17-1.68,11.75-3.12,17.14-4.41l4.36-1.08c2.19-.54,4.39-1.05,6.66-1.57,4.45-.98,8.9-1.97,13.5-2.87,2.73-.57,5.5-1.11,8.23-1.64,3.91-.69,7.88-1.39,11.91-2.06.99-.19,2-.35,3.03-.52l1.53-.27.11-.03.56-.1h.04c63.92,9.25,122.28,25.61,173.48,48.61Zm-371.75-55.24c21.14-1.92,42.94-2.86,66.66-2.86,26.81,0,51.37.84,75,2.54l41.18,5.1c-.84.15-1.68.31-2.55.47-2.79.54-5.57,1.09-8.3,1.66-4.61.91-9.09,1.9-13.67,2.91-2.24.52-4.45,1.03-6.63,1.56-1.33.3-2.66.62-3.99.95l-.48.11c-5.93,1.44-11.78,2.99-17.55,4.57-.8.22-1.67.46-2.5.69-1.47.41-2.97.8-4.41,1.22h0c-5.44,1.54-10.76,3.15-16.12,4.79l-.35.12c-5.03,1.58-10.23,3.3-15.44,5.11-1.4.47-2.8.96-4.19,1.45-1.19.42-2.38.83-3.59,1.25l-.94.34c-2.31.82-4.59,1.64-6.84,2.51-8.44,3.16-15.92,6.13-22.82,9.07-2.55,1.04-5.04,2.1-7.56,3.2-2.47,1.12-4.94,2.23-7.44,3.33l-1.91.88c-1.83.85-3.65,1.68-5.44,2.53-4.87,2.3-9.74,4.66-14.58,7.08-9.9,4.98-19.63,10.27-28.89,15.7-1.75.98-3.49,2.02-5.18,3.06-2.64,1.52-5.25,3.1-7.86,4.71-2.28,1.4-4.56,2.79-6.79,4.26-1.85,1.14-4.29,2.67-6.64,4.31-.04.03-.08.05-.12.08-1.21.79-2.41,1.59-3.6,2.38-3.19,2.11-6.36,4.26-9.47,6.46-1.96,1.38-3.91,2.75-5.87,4.15l-1.97,1.4c-1.69,1.23-3.39,2.45-4.93,3.68-2.07,1.47-4.14,3.03-6.19,4.62-.2.13-.35.26-.47.37-7.92,6.03-15.58,12.25-22.75,18.47-2.49,2.12-4.94,4.25-7.32,6.38-.02.01-.03.03-.05.05,0,0,0,0,0,0-.07.06-.13.12-.2.18-1.92,1.64-3.77,3.33-5.66,5.08-5.95,5.45-11.69,10.97-17.02,16.36-1.66,1.61-3.28,3.24-4.89,4.9l-1.15,1.2c-3.5,3.57-6.94,7.22-10.24,10.86l-.07.07v.02s-.02,0-.02,0v.02s-.57.66-.57.66h0c-.8.87-1.59,1.74-2.37,2.6-.11.13-.22.26-.34.38-.66.74-1.32,1.48-1.94,2.22-3.15,3.5-6.38,7.24-10.11,11.7-.08.1-.16.18-.24.28l-.56.68c-1.55,1.83-3.05,3.64-4.46,5.42-2.43,2.99-5.29,6.54-8.06,10.27-.37.37-.7.79-.95,1.21-2.79,3.55-5.45,7.1-7.88,10.52-2.36,3.19-4.67,6.43-6.88,9.62-.39.53-.71,1.04-1.13,1.71l-.03.04c-.05.07-.1.15-.15.22-2.48,3.58-4.97,7.31-7.58,11.38-1.5,2.23-2.96,4.52-4.3,6.72-1.38,2.11-2.66,4.22-3.95,6.36l-.3.49c-1.4,2.25-2.8,4.59-4.12,6.87-1.61,2.67-3.16,5.37-4.68,8.08-.79,1.39-1.54,2.76-2.33,4.18-1.78,3.24-3.54,6.48-5.29,9.79-1.84,3.44-3.75,7.18-6.03,11.75-1.5,2.97-2.97,6.02-4.44,9.07-.12.21-.2.41-.27.58l-.54,1.14c-.68,1.45-1.37,2.91-1.96,4.3-1.41,2.94-2.73,5.9-4.11,8.99-2.49,5.69-4.6,10.71-6.47,15.33-1.06,2.57-2.09,5.14-3.12,7.75-2.2,5.61-4.43,11.63-6.81,18.42l-2.73,7.91c-.43,1.27-.86,2.54-1.26,3.8-3.57,10.86-6.79,21.66-9.57,32.09-.75,2.84-1.51,5.72-2.24,8.6-3.04,12.17-5.75,24.46-8.05,36.54l-.33,1.79c-.47,2.54-.92,5.05-1.36,7.54l-.19,1.01c-.21,1.16-.42,2.33-.59,3.48-.05.21-.09.4-.13.6l-.06.31c-.28,1.54-.49,3.05-.71,4.58l-.11.68c-.03.21-.06.41-.13.7-1.69,10.07-3.14,20.54-4.3,31.1-1.5,13.71-2.64,27.29-3.36,40.35h.01s0,.04,0,.06c-1.41,13.06-2.12,26.57-2.12,40.16,0,12.82.62,25.55,1.85,37.82,10.72,107.96,50.87,187.35,122.74,242.7,28.25,21.77,60.14,38.99,95.11,51.42-1.83-.37-3.64-.74-5.43-1.11-3.6-.75-7.14-1.5-10.58-2.31-1.67-.4-3.36-.81-5.06-1.21l-2.43-.6s-.03,0-.05,0c-.18-.04-.33-.07-.41-.07l-1.1-.28c-2.25-.57-4.44-1.11-6.65-1.71-4.95-1.3-9.93-2.69-14.8-4.15-4.17-1.23-8.22-2.46-12.19-3.75-23.4-7.52-43.7-15.87-58.77-22.3l-12.71-5.45s-.05-.02-.08-.04c-.26-.12-.52-.24-.77-.35l-3.66-1.67v.11c-2.12-.93-4.23-1.88-6.32-2.82l-1.32-.59c-24.49-11.21-48.41-24.31-71.11-38.94-3.45-2.2-6.9-4.49-10.59-7.04-1.4-.92-2.73-1.84-4.09-2.81-3.39-2.34-6.73-4.71-10.02-7.1-.31-.23-.62-.45-.93-.66l-.41-.29c-3.39-2.46-6.72-4.98-9.99-7.5l-3.17-2.5c-3.42-2.64-6.82-5.34-10.18-8.07-4.15-3.39-7.5-6.23-10.7-9.06-.88-.74-1.76-1.48-2.66-2.29-3.16-2.77-6.26-5.55-9.28-8.33l-.35-.37c-2.9-2.61-5.71-5.3-8.53-7.98l-1.35-1.29c-.94-.92-1.87-1.82-2.85-2.8-2.64-2.55-5.18-5.15-7.83-7.89-.57-.52-1.1-1.1-1.84-1.9-3.14-3.2-6.13-6.38-8.92-9.5-2.87-3.04-5.67-6.18-8.39-9.38-1.7-1.88-3.3-3.78-4.94-5.75-5.38-6.28-10.48-12.58-15.19-18.78-1.82-2.23-3.51-4.52-5-6.57-.99-1.23-1.93-2.48-2.87-3.82-1.55-2.09-3.13-4.24-4.68-6.48-1.12-1.5-2.15-2.98-3.23-4.61-1.49-2.09-2.99-4.27-4.44-6.44-3.08-4.52-6-9.01-8.95-13.78-.61-.9-1.16-1.8-1.73-2.76l-.78-1.25c-1.27-2.04-2.54-4.08-3.78-6.21l-.2-.31c-.09-.14-.2-.28-.39-.67-1.1-1.8-2.15-3.59-3.2-5.38-1.99-3.43-3.98-6.92-5.93-10.38-6.12-10.86-11.73-21.9-16.7-32.86-4.25-8.94-8.36-18.33-12.22-27.9-1.29-3.15-2.55-6.32-3.76-9.57-.28-.7-.54-1.42-.81-2.13-.23-.62-.46-1.24-.7-1.85l-2.09-5.56c-1.53-4.21-3.07-8.48-4.54-12.75-3.01-8.76-5.76-17.47-8.17-25.91-1.21-4.07-2.31-8.14-3.43-12.28l-.23-.85c-.57-2.2-1.15-4.43-1.72-6.69-.34-1.34-.66-2.69-.97-4.03l-.65-2.73c-.47-1.87-.92-3.79-1.31-5.71-1.69-7.41-2.98-13.55-4.06-19.34-.39-1.9-.75-3.81-1.08-5.84-.61-3.08-1.13-6.2-1.65-9.34l-.23-1.41c.28-1.63.59-3.2.89-4.8.5-2.76.99-5.54,1.52-8.23.36-1.82.76-3.57,1.13-5.36.52-2.46,1.01-4.95,1.56-7.37.43-1.91.9-3.77,1.34-5.66.53-2.23,1.04-4.48,1.59-6.67.51-2.02,1.06-3.99,1.59-5.99s1.04-4.02,1.59-5.98c.6-2.14,1.24-4.23,1.86-6.34.52-1.76,1.02-3.55,1.56-5.3.72-2.33,1.48-4.61,2.22-6.9.48-1.48.94-2.98,1.43-4.44.81-2.4,1.65-4.75,2.49-7.11.47-1.33.92-2.67,1.4-3.99.9-2.45,1.83-4.87,2.76-7.29.46-1.19.89-2.4,1.36-3.58.97-2.48,1.99-4.92,3-7.37.45-1.1.89-2.22,1.35-3.31,1.09-2.6,2.22-5.17,3.36-7.75.4-.92.79-1.85,1.2-2.77,1.25-2.81,2.55-5.6,3.85-8.39.31-.67.61-1.35.92-2.01,1.31-2.78,2.66-5.55,4.01-8.31.33-.67.64-1.35.97-2.01,1.44-2.92,2.92-5.82,4.41-8.73.26-.51.51-1.03.78-1.54,1.29-2.5,2.61-4.99,3.93-7.49.49-.93.96-1.85,1.46-2.78,1.46-2.74,2.96-5.48,4.47-8.23.37-.68.73-1.36,1.11-2.04,1.89-3.43,3.81-6.87,5.77-10.33.31-.52.59-1.03.88-1.54.37-.66.73-1.31,1.23-2.09,1.96-3.44,4.05-6.94,6.21-10.5,1.12-1.85,2.23-3.68,3.42-5.59,93.45-150.15,252.47-242.35,447.79-259.61Zm-673.51-2.86h221.64V207.01c-1.13,1.81-2.17,3.54-3.23,5.29-.51.85-1.07,1.73-1.57,2.57-1.57,2.63-3.08,5.21-4.52,7.74-.49.75-.9,1.5-1.32,2.24-.26.47-.52.94-.84,1.46-3.94,6.97-7.76,13.88-11.45,20.78-24.09,45.09-42.58,89.65-53.75,146.8l-2.35,12.77c-.21,1.02-.4,2.04-.56,3.09l-.03.16.02.42c-5.48,35.04-9.31,88.22-9.31,129.57,0,12,.25,22.77.76,32.92.05,1.44.12,2.87.21,4.29-1.75,2.1-3.56,4.18-5.37,6.26-.92,1.06-1.81,2.13-2.74,3.18-2.85,3.22-5.77,6.41-8.74,9.57-1.28,1.34-2.54,2.65-3.92,4-6.51,6.69-13.45,13.28-20.62,19.57-1.94,1.71-3.91,3.4-5.94,5.07-.87.76-1.74,1.48-2.61,2.2l-1.07.88c-1.34,1.13-2.74,2.26-4.14,3.37-9.57,7.66-19.74,15.07-30.19,22.01l-7.8,5.01c-1.93,1.22-3.86,2.43-5.86,3.62-2.12,1.31-4.21,2.57-6.38,3.8-11.86,7.02-24.66,13.73-38.07,19.96-1.5.72-3.02,1.4-4.52,2.07l-1.34.6c-2.85,1.32-5.78,2.56-8.71,3.82V-30.74c0-.23.66-22.91,24.3-22.91Zm-377.18,903.65c35.44,22.5,78.03,34.4,123.18,34.4s87.74-11.89,123.22-34.4c55.31-35.16,88.88-78.14,102.06-130.87-.06,34.22-4.19,68.27-12.16,101,0,.01,0,.03,0,.04-.7,2.87-1.45,5.72-2.21,8.57-.22.81-.41,1.63-.63,2.43-.48,1.76-1.01,3.51-1.51,5.26-.54,1.88-1.06,3.77-1.63,5.64-.1.33-.21.66-.32,1-5.36,17.55-11.84,34.62-19.42,51.03-4.48,9.62-9.27,18.92-14.28,27.79-1.5,2.66-3.03,5.29-4.58,7.87-.17.28-.33.55-.5.83-2.22,3.7-4.47,7.3-6.71,10.86-.3.48-.62.98-.91,1.44-.22.34-.44.66-.66,1-1.5,2.31-3.04,4.6-4.59,6.88-.34.5-.68,1-1.02,1.49-1.66,2.39-3.34,4.75-5.04,7.08-.23.31-.46.64-.69.95-.23.31-.48.65-.72.96-2.03,2.75-4.08,5.45-6.13,8.11-.25.32-.48.63-.74.96-23.26,29.55-50.62,55.36-81.76,77.19-.22.16-.45.31-.68.46-2.88,2.01-5.78,3.99-8.72,5.93-.56.37-1.14.73-1.71,1.09-2.61,1.71-5.24,3.4-7.9,5.05-.92.57-1.85,1.11-2.78,1.67-2.33,1.42-4.66,2.84-7.03,4.22-1.32.77-2.67,1.51-4,2.26-2,1.14-3.99,2.28-6.02,3.39-1.72.94-3.47,1.84-5.21,2.76-1.67.88-3.32,1.78-5,2.64-2.16,1.11-4.36,2.17-6.55,3.25-1.19.58-2.36,1.18-3.56,1.75-3.45-1.62-6.87-3.31-10.28-5.04-.22-.11-.45-.22-.68-.33-3.64-1.86-7.25-3.78-10.83-5.77-.03-.01-.05-.03-.08-.04-3.56-1.97-7.08-4.01-10.57-6.09-.05-.03-.1-.05-.14-.08-3.53-2.12-7.03-4.29-10.48-6.52l-.32-.23c-1.81-1.13-3.63-2.37-5.41-3.59l-.4-.77h-.71c-1.78-1.17-3.68-2.48-6.05-4.18-2.68-1.91-5.34-3.87-7.98-5.86-7.9-5.97-15.57-12.29-22.9-18.87-4.85-4.25-9.73-8.85-14.52-13.68-.78-.78-1.56-1.56-2.43-2.47-.81-.77-1.58-1.53-2.33-2.33-3.29-3.34-6.43-6.82-9.14-9.84-1.53-1.66-3.02-3.37-4.62-5.19-1.46-1.73-2.93-3.46-4.39-5.14-5.03-6.11-8.86-10.94-12.32-15.56l-.03-1.5h-1.1c-3.62-4.88-6.87-9.42-9.93-13.84-3.35-4.86-6.52-9.69-9.45-14.37-2.36-3.74-4.66-7.52-6.88-11.33-6.69-11.44-12.77-23.18-18.14-35.04l-.14-.32c-1.49-3.32-2.97-6.63-4.34-9.97-20.43-48.32-31.35-100.24-32.47-154.32-.08-2.95-.12-5.86-.12-8.81,12.83,54.45,43.8,95.87,96.07,129.06ZM-9.75,192.36c-12.59,0-22.83-10.36-22.83-23.1V-53.65h296.03v746.74c-3.21-1.34-6.91-2.93-10.62-4.62-6.73-3.02-13.52-6.26-20.16-9.62-4.44-2.29-8.89-4.62-13.28-6.99-6.66-3.67-13.21-7.48-19.47-11.34-3.98-2.46-8.12-5.12-12.66-8.13-44.5-29.69-80.61-66.21-107.34-108.56-40.63-64.37-62.11-140.59-62.11-220.41v-131.04H-9.75Zm496.88,938.93c-43.17,0-84.34-3.45-122.36-10.25l-.24-.04c-37.06-6.57-72.06-16.59-104.03-29.78-76.76-31.63-137.52-82.26-180.6-150.5-40.64-64.38-62.11-140.6-62.11-220.42v-334.49c1.22,8.49,2.71,16.9,4.42,25.24.16.8.33,1.59.5,2.39.86,4.09,1.78,8.16,2.76,12.22.09.38.18.76.27,1.14,1.12,4.56,2.31,9.1,3.58,13.61.08.3.17.59.26.89,1.15,4.05,2.36,8.06,3.63,12.06.25.8.51,1.59.76,2.38,1.33,4.12,2.72,8.22,4.18,12.29.05.14.1.28.15.42,1.57,4.36,3.22,8.69,4.94,12.99.21.53.43,1.05.64,1.57,1.48,3.67,3.02,7.31,4.61,10.93.34.78.68,1.56,1.03,2.33,3.67,8.22,7.61,16.31,11.82,24.26.35.67.72,1.33,1.08,2,1.8,3.35,3.65,6.67,5.54,9.96.42.73.84,1.47,1.27,2.2,2.26,3.87,4.56,7.71,6.95,11.5,27.06,42.89,63.61,79.86,108.64,109.89,4.59,3.04,8.77,5.73,12.78,8.21,6.34,3.91,12.96,7.77,19.68,11.46,4.43,2.39,8.9,4.74,13.39,7.05,6.73,3.41,13.58,6.68,20.36,9.71,4.3,1.96,8.63,3.8,12.44,5.39v22.42c0,3.2.04,6.36.13,9.54.78,37.56,6.24,74.09,16.28,109.12,4.56,15.92,10.08,31.53,16.53,46.79,1.38,3.36,2.88,6.72,4.39,10.08l.15.33c7.26,16,15.78,31.79,25.32,46.9,1.48,2.36,3.02,4.77,4.62,7.19,1.6,2.43,3.25,4.88,4.94,7.33.02.03.04.06.07.09,3.39,4.94,6.85,9.75,10.59,14.72.01.01.02.03.03.04l.66.89h.01c3.45,4.59,7.27,9.41,12.29,15.5,1.49,1.71,2.94,3.43,4.55,5.3,1.51,1.74,3.03,3.48,4.57,5.14,2.72,3.04,5.9,6.56,9.23,9.94.77.82,1.6,1.65,2.39,2.39.81.85,1.62,1.66,2.42,2.46,4.85,4.9,9.81,9.57,14.71,13.87,9.87,8.86,20.38,17.28,31.24,25.01,2.46,1.77,4.43,3.13,6.3,4.36l.39.74h.68c1.72,1.17,3.47,2.36,5.22,3.46l.27.2c12.99,8.4,26.63,16,40.58,22.72l4.75,2.34c13.87,6.38,55.77,24.78,95.63,33.77.13.03.26.06.4.09,1.21.27,2.41.53,3.62.78.24.05.49.11.73.16,1.14.24,2.28.46,3.41.68.29.06.59.12.88.17,1.13.21,2.25.41,3.36.61.24.04.48.09.72.13-34.03,5.4-70.42,8.13-108.35,8.13Zm418.9-201.53c-43.52,73.03-106.08,127.04-185.93,160.53-36.13,15.19-80.6,25.05-111.68,30.67-.17-.03-.34-.07-.52-.1-.7-.13-1.4-.27-2.1-.42-1.55-.32-3.09-.63-4.6-.84-.07,0-.13-.03-.2-.04-1.43-.21-2.87-.43-4.32-.68-.02,0-.04,0-.06-.01-1.37-.23-2.75-.48-4.13-.73-.24-.05-.48-.09-.72-.14-1.18-.23-2.37-.46-3.56-.7-.28-.06-.56-.12-.84-.18-1.19-.25-2.38-.51-3.57-.77-.24-.05-.48-.11-.72-.16-1.29-.29-2.57-.59-3.86-.9-.13-.03-.26-.06-.39-.09-25.27-6.12-50.96-15.75-68.83-23.12,0,0-.01,0-.02,0-1.04-.43-2.06-.85-3.05-1.27-.01,0-.03-.01-.04-.02-.97-.41-1.92-.81-2.84-1.2-.02-.01-.05-.02-.07-.03-4.8-2.04-8.78-3.8-11.75-5.14,1.28-.62,2.52-1.28,3.79-1.92,1.44-.72,2.87-1.44,4.3-2.18,1.99-1.02,3.95-2.07,5.91-3.12,1.51-.81,3.02-1.62,4.52-2.44,1.84-1.01,3.66-2.05,5.47-3.08,1.57-.9,3.15-1.79,4.71-2.71,1.71-1,3.4-2.03,5.09-3.05,1.62-.99,3.25-1.97,4.86-2.97,1.58-.99,3.15-2,4.71-3.01,1.67-1.08,3.34-2.15,4.99-3.25,1.46-.97,2.9-1.97,4.35-2.96,1.71-1.17,3.43-2.34,5.12-3.53,1.35-.95,2.68-1.93,4.01-2.9,1.75-1.27,3.5-2.53,5.22-3.83,1.23-.93,2.44-1.87,3.66-2.81,1.78-1.37,3.57-2.74,5.33-4.14,1.12-.89,2.22-1.81,3.33-2.71,1.82-1.48,3.63-2.96,5.42-4.47,1-.85,1.98-1.72,2.98-2.57,1.86-1.6,3.72-3.2,5.54-4.84.87-.77,1.71-1.57,2.57-2.35,1.92-1.75,3.84-3.5,5.72-5.29.7-.67,1.39-1.36,2.09-2.03,2-1.93,4-3.86,5.95-5.83.5-.5.99-1.02,1.48-1.53,2.13-2.17,4.25-4.34,6.33-6.56.16-.17.31-.34.46-.51,7.43-7.95,14.54-16.21,21.29-24.79.26-.33.51-.68.77-1.02,2.24-2.88,4.36-5.7,6.34-8.39.19-.25.38-.49.56-.74.18-.25.36-.51.54-.76,1.73-2.36,3.47-4.8,5.22-7.33.36-.53.72-1.06,1.09-1.59,1.54-2.25,3.08-4.56,4.63-6.92.22-.34.46-.67.68-1.01.33-.52.65-1.04.98-1.56,2.1-3.32,4.44-7.05,6.78-10.97.15-.24.29-.48.44-.72,1.4-2.34,2.78-4.74,4.15-7.15,5.26-9.25,10.28-18.93,14.93-28.92,8.6-18.61,15.77-38.09,21.53-58.12,11.02-38.33,16.78-78.74,16.78-119.4v-21.5c3.57-1.52,7.08-3.03,10.53-4.63l1.31-.59c1.53-.69,3.08-1.38,4.59-2.1,13.51-6.29,26.45-13.07,38.4-20.14,2.19-1.25,4.33-2.53,6.46-3.85,2-1.19,3.95-2.42,5.92-3.66l7.87-5.06c10.58-7.03,20.85-14.51,30.52-22.24,1.43-1.13,2.87-2.29,4.23-3.45l1.04-.86c.9-.75,1.81-1.49,2.65-2.24,2.01-1.64,4.02-3.38,6-5.12,7.26-6.37,14.28-13.03,20.83-19.77,1.38-1.35,2.67-2.69,4.17-4.26,2.71-2.88,5.39-5.83,8.05-8.82.81-.92,1.61-1.84,2.42-2.76,1.12-1.28,2.25-2.54,3.35-3.83.03.47.07.95.1,1.42.35,5.96.77,11.92,1.28,17.87.08.94.17,1.89.25,2.83.53,6,1.13,12,1.82,17.97.09.8.19,1.6.29,2.41.73,6.13,1.52,12.25,2.4,18.34.07.51.16,1.02.23,1.53.94,6.38,1.96,12.74,3.08,19.06,1.1,6.28,2.29,12.39,3.54,18.13,9.77,47.72,24.9,93.27,44.99,135.4,3.25,6.81,6.18,12.7,8.95,17.99.87,1.7,1.75,3.38,2.64,5.06-9.36,31.13-22.39,60.79-38.72,88.17Zm376.76,176.21l-.24-.21h-.6c-9.25-2.7-19.13-5.86-30.16-9.67-133.74-46.98-238.41-135.42-302.71-255.77-1.02-1.92-2.04-3.83-3.04-5.81-2.75-5.26-5.66-11.11-8.89-17.87-19.93-41.8-34.95-87.02-44.65-134.41-1.25-5.7-2.43-11.75-3.51-17.98-4.39-24.77-7.43-50.14-9.06-75.6-.21-3.34-.4-6.69-.57-10.03h.01s-.06-.87-.06-.87l-.27-5.65-.02.02c-.49-9.95-.73-20.49-.73-32.21,0-2.47.02-4.99.04-7.54,0-.86.03-1.75.04-2.62.02-1.7.05-3.41.08-5.14.02-1.04.05-2.1.08-3.15.04-1.59.08-3.18.12-4.79.03-1.13.07-2.27.11-3.41.05-1.55.1-3.1.16-4.66.04-1.18.09-2.37.14-3.56.06-1.54.13-3.09.2-4.63.06-1.21.11-2.42.17-3.63.08-1.54.16-3.08.24-4.63.06-1.21.13-2.42.2-3.63.09-1.57.19-3.15.28-4.72.07-1.18.14-2.36.22-3.54.11-1.63.22-3.25.33-4.87.08-1.12.15-2.24.23-3.35.13-1.76.26-3.51.4-5.25.07-.96.15-1.93.22-2.89.2-2.44.4-4.86.61-7.26.02-.25.04-.51.06-.76.24-2.65.48-5.27.73-7.87.08-.83.17-1.64.25-2.47.18-1.75.35-3.5.54-5.22.1-.98.21-1.94.32-2.91.17-1.53.34-3.06.51-4.56.12-1.01.24-2,.36-3,.17-1.41.34-2.82.52-4.2.13-1,.26-1.98.39-2.97.1-.76.2-1.5.3-2.25.22,1.22.46,2.43.7,3.62,1.09,5.81,2.39,12,4.08,19.43.4,1.93.86,3.93,1.34,5.84l.64,2.68c.32,1.36.65,2.73.99,4.1.58,2.26,1.15,4.5,1.73,6.73l.24.87c1.13,4.18,2.24,8.28,3.45,12.36,2.43,8.49,5.2,17.28,8.24,26.11,1.48,4.29,3.02,8.59,4.58,12.86l.96,2.54c.28.75.57,1.51.85,2.26l.16.44c.28.71.55,1.43.82,2.16.28.74.55,1.48.83,2.17,1.21,3.25,2.49,6.46,3.79,9.64,3.88,9.65,8.03,19.11,12.31,28.1,5,11.03,10.67,22.19,16.85,33.17,1.97,3.47,3.96,6.98,5.96,10.43,1.06,1.82,2.13,3.65,3.13,5.23.15.34.37.68.7,1.18,1.22,2.1,2.52,4.18,3.81,6.26l.75,1.21c.6,1,1.2,1.98,1.81,2.87,2.94,4.75,5.89,9.29,8.99,13.84,1.46,2.19,2.98,4.41,4.46,6.47,1.08,1.63,2.16,3.17,3.28,4.68,1.53,2.22,3.14,4.42,4.69,6.5.96,1.37,1.96,2.71,2.94,3.92,1.45,2,3.2,4.36,5.04,6.61,4.72,6.21,9.87,12.58,15.29,18.89,1.65,1.98,3.3,3.94,4.99,5.81,2.72,3.2,5.58,6.4,8.46,9.46,2.8,3.12,5.84,6.36,9.09,9.68.67.72,1.28,1.39,1.85,1.9,2.58,2.67,5.17,5.31,7.81,7.87.97.97,1.91,1.88,2.87,2.82l1.38,1.32c2.77,2.64,5.54,5.28,8.39,7.85l.34.35c3.15,2.91,6.33,5.75,9.55,8.58.92.83,1.84,1.61,2.82,2.43,3.09,2.74,6.49,5.62,10.69,9.05,3.39,2.76,6.81,5.48,10.23,8.12l3.17,2.5c3.33,2.58,6.7,5.12,10.15,7.62l1.3.92c3.33,2.42,6.7,4.82,10.09,7.16,1.38.98,2.81,1.96,4.16,2.85,3.7,2.55,7.19,4.87,10.67,7.09,4.59,2.96,9.25,5.84,13.94,8.67,2.06,1.25,4.13,2.48,6.21,3.7,16.73,9.82,33.97,18.83,51.51,26.86.11.05.23.1.34.15l1,.45c.11.05.22.1.33.15,3.03,1.38,6.06,2.76,9.13,4.09l3.09,1.28h0s11.07,4.73,11.07,4.73c1.9.81,3.87,1.65,5.93,2.51,14.39,6.04,32.6,13.3,53.21,19.93,4,1.3,8.09,2.54,12.3,3.79,4.92,1.47,9.94,2.87,14.92,4.18,2.22.6,4.44,1.15,6.71,1.72l2.62.64c2.12.49,4.29,1.01,6.47,1.54,3.49.82,7.07,1.58,10.71,2.34.02,0,.04,0,.06.01,3.48.78,6.92,1.43,11.04,2.19,2.85.55,5.8,1.1,8.7,1.58,4.84.82,9.8,1.58,14.92,2.34.61.08,1.25.17,1.97.29l2.14.33c27.01,3.69,58.56,5.27,105.46,5.27,24.72,0,48.79-.25,71.4-3.25,23.19-3.01,46.45-7.71,69.13-13.97,28.53-7.96,55.6-18.35,80.52-30.91v273.29c-64.88,13.51-131.74,20.36-198.73,20.36-74.49,0-148.81-8.51-220.89-25.3Zm721.01-407.05c0,16.05-12.32,23.36-23.76,23.36h-26.51v298.37c-26.76,14.07-54.24,26.91-81.69,38.17-45.62,18.81-93.33,34.23-141.81,45.85-8.17,1.99-15.78,3.72-23.17,5.28v-278.17h-.03v-109.77h-104.05c-6.28,0-13.84-5.18-17.6-12.06-2.81-5.14-3.6-11.69-2.03-16.7,4.72-14.88,35.98-89.11,188.03-89.11,36.77,0,67.94,3.2,79.62,4.57,2.18.26,4.16-.73,5.18-2.61,1.08-1.98.8-4.43-.72-6.23-7.46-8.86-14.95-16.35-23.58-23.55-8.81-7.39-15.32-11.38-19.81-13.78,57.43-2.93,148.42-36.2,191.94-120.38v256.75Z"/>
  </g>
</svg>